<?xml version="1.0" encoding="UTF-8" standalone="no"?>
<!-- Created with Inkscape (http://www.inkscape.org/) -->

<svg
   width="49.999996mm"
   height="50mm"
   viewBox="0 0 49.999996 50"
   version="1.1"
   id="svg1"
   xml:space="preserve"
   xmlns="http://www.w3.org/2000/svg"
   xmlns:svg="http://www.w3.org/2000/svg"><defs
     id="defs1" /><g
     id="layer1"><g
       id="g1"
       transform="matrix(1.3166437,0,0,1.2401952,-69.676932,-92.813888)"><path
         style="fill:#000000;fill-opacity:0"
         d="m 88.521999,112.63459 h 2.373459 v 2.51977 h -2.373459"
         id="path256" /><path
         style="fill:#000000;fill-opacity:0"
         d="m 86.14854,112.63459 h 2.373459 v 2.51977 H 86.14854"
         id="path255" /><path
         style="fill:#000000;fill-opacity:0"
         d="m 83.775081,112.63459 h 2.373459 v 2.51977 h -2.373459"
         id="path254" /><path
         style="fill:#000000;fill-opacity:0"
         d="m 81.401622,112.63459 h 2.373459 v 2.51977 h -2.373459"
         id="path253" /><path
         style="fill:#000000;fill-opacity:1"
         d="m 78.434798,113.26453 1.186729,-1.25988 1.780095,0.62994 v 2.51977 h -2.373459"
         id="path252" /><path
         style="fill:#fdc300;fill-opacity:1"
         d="m 77.248068,113.26453 h 1.18673 l 0.593365,1.88983 h -2.373459"
         id="path251" /><path
         style="fill:#000000;fill-opacity:1"
         d="m 73.68788,113.26453 1.186729,-1.25988 h 1.18673 l 1.186729,1.25988 -0.593364,1.88983 h -2.373459"
         id="path250" /><path
         style="fill:#fdc300;fill-opacity:1"
         d="m 71.907785,112.63459 1.780095,0.62994 0.593365,1.88983 h -2.37346"
         id="path249" /><path
         style="fill:#fdc300;fill-opacity:1"
         d="m 69.534326,112.63459 h 2.373459 v 2.51977 h -2.373459"
         id="path248" /><path
         style="fill:#775647;fill-opacity:1"
         d="m 67.160867,112.63459 h 2.373459 v 2.51977 h -2.373459"
         id="path247" /><path
         style="fill:#000000;fill-opacity:1"
         d="m 64.787408,112.63459 h 2.373459 v 2.51977 h -2.373459"
         id="path246" /><path
         style="fill:#000000;fill-opacity:0"
         d="m 62.413949,112.63459 h 2.373459 v 2.51977 h -2.373459"
         id="path245" /><path
         style="fill:#000000;fill-opacity:0"
         d="m 60.04049,112.63459 h 2.373459 v 2.51977 H 60.04049"
         id="path244" /><path
         style="fill:#000000;fill-opacity:0"
         d="m 57.667031,112.63459 h 2.373459 v 2.51977 h -2.373459"
         id="path243" /><path
         style="fill:#000000;fill-opacity:0"
         d="m 55.293572,112.63459 h 2.373459 v 2.51977 h -2.373459"
         id="path242" /><path
         style="fill:#000000;fill-opacity:0"
         d="m 52.920113,112.63459 h 2.373459 v 2.51977 h -2.373459"
         id="path241" /><path
         style="fill:#000000;fill-opacity:0"
         d="m 88.521999,110.11483 h 2.373459 v 2.51976 h -2.373459"
         id="path240" /><path
         style="fill:#000000;fill-opacity:0"
         d="m 86.14854,110.11483 h 2.373459 v 2.51976 H 86.14854"
         id="path239" /><path
         style="fill:#000000;fill-opacity:0"
         d="m 83.775081,110.11483 h 2.373459 v 2.51976 h -2.373459"
         id="path238" /><path
         style="fill:#000000;fill-opacity:0"
         d="m 81.994987,110.74477 1.780094,-0.62994 v 2.51976 h -2.373459"
         id="path237" /><path
         style="fill:#000000;fill-opacity:1"
         d="m 79.028163,110.11483 1.780094,-0.62994 1.18673,1.25988 -0.593365,1.88982 -1.780095,-0.62994"
         id="path236" /><path
         style="fill:#000000;fill-opacity:1"
         d="m 76.654704,110.11483 h 2.373459 l 0.593364,1.88982 -1.186729,1.25988 h -1.18673 l -1.186729,-1.25988"
         id="path235" /><path
         style="fill:#000000;fill-opacity:1"
         d="m 74.281245,110.11483 h 2.373459 l -0.593365,1.88982 h -1.18673"
         id="path234" /><path
         style="fill:#000000;fill-opacity:1"
         d="m 71.907785,110.11483 h 2.37346 l 0.593364,1.88982 -1.186729,1.25988 -1.780095,-0.62994"
         id="path233" /><path
         style="fill:#000000;fill-opacity:1"
         d="m 68.940962,110.74477 1.186729,-1.25988 1.780094,0.62994 v 2.51976 h -2.373459"
         id="path232" /><path
         style="fill:#775647;fill-opacity:1"
         d="m 67.754232,110.74477 h 1.18673 l 0.593364,1.88982 h -2.373459"
         id="path231" /><path
         style="fill:#000000;fill-opacity:1"
         d="m 64.194043,110.74477 1.18673,-1.25988 h 1.186729 l 1.18673,1.25988 -0.593365,1.88982 h -2.373459"
         id="path230" /><path
         style="fill:#000000;fill-opacity:0"
         d="m 62.413949,110.11483 1.780094,0.62994 0.593365,1.88982 h -2.373459"
         id="path229" /><path
         style="fill:#000000;fill-opacity:0"
         d="m 60.04049,110.11483 h 2.373459 v 2.51976 H 60.04049"
         id="path228" /><path
         style="fill:#000000;fill-opacity:0"
         d="m 57.667031,110.11483 h 2.373459 v 2.51976 h -2.373459"
         id="path227" /><path
         style="fill:#000000;fill-opacity:0"
         d="m 55.293572,110.11483 h 2.373459 v 2.51976 h -2.373459"
         id="path226" /><path
         style="fill:#000000;fill-opacity:0"
         d="m 52.920113,110.11483 h 2.373459 v 2.51976 h -2.373459"
         id="path225" /><path
         style="fill:#000000;fill-opacity:0"
         d="m 88.521999,107.59506 h 2.373459 v 2.51977 h -2.373459"
         id="path224" /><path
         style="fill:#000000;fill-opacity:0"
         d="m 86.741905,108.22501 1.780094,-0.62995 v 2.51977 H 86.14854"
         id="path223" /><path
         style="fill:#000000;fill-opacity:1"
         d="m 83.775081,107.59506 1.780094,-0.62994 1.18673,1.25989 -0.593365,1.88982 h -2.373459"
         id="path222" /><path
         style="fill:#000000;fill-opacity:1"
         d="m 81.994987,108.22501 1.780094,-0.62995 v 2.51977 l -1.780094,0.62994 -1.18673,-1.25988"
         id="path221" /><path
         style="fill:#b1bec6;fill-opacity:1"
         d="m 79.028163,107.59506 1.780094,-0.62994 1.18673,1.25989 -1.18673,1.25988 -1.780094,0.62994"
         id="path220" /><path
         style="fill:#b1bec6;fill-opacity:1"
         d="m 76.654704,107.59506 h 2.373459 v 2.51977 h -2.373459"
         id="path219" /><path
         style="fill:#b1bec6;fill-opacity:1"
         d="m 74.281245,107.59506 h 2.373459 v 2.51977 h -2.373459"
         id="path218" /><path
         style="fill:#b1bec6;fill-opacity:1"
         d="m 71.314421,108.22501 1.186729,-1.25989 1.780095,0.62994 v 2.51977 h -2.37346"
         id="path217" /><path
         style="fill:#b1bec6;fill-opacity:1"
         d="m 68.940962,108.22501 1.186729,-1.25989 1.18673,1.25989 0.593364,1.88982 -1.780094,-0.62994"
         id="path216" /><path
         style="fill:#000000;fill-opacity:1"
         d="m 67.754232,108.22501 h 1.18673 l 1.186729,1.25988 -1.186729,1.25988 h -1.18673 l -1.18673,-1.25988"
         id="path215" /><path
         style="fill:#b1bec6;fill-opacity:1"
         d="m 64.194043,108.22501 1.18673,-1.25989 h 1.186729 l 1.18673,1.25989 -1.18673,1.25988 h -1.186729"
         id="path214" /><path
         style="fill:#000000;fill-opacity:1"
         d="m 62.413949,107.59506 1.780094,0.62995 1.18673,1.25988 -1.18673,1.25988 -1.780094,-0.62994"
         id="path213" /><path
         style="fill:#000000;fill-opacity:1"
         d="m 59.447125,108.22501 1.18673,-1.25989 1.780094,0.62994 v 2.51977 H 60.04049"
         id="path212" /><path
         style="fill:#000000;fill-opacity:0"
         d="m 57.667031,107.59506 1.780094,0.62995 0.593365,1.88982 h -2.373459"
         id="path211" /><path
         style="fill:#000000;fill-opacity:0"
         d="m 55.293572,107.59506 h 2.373459 v 2.51977 h -2.373459"
         id="path210" /><path
         style="fill:#000000;fill-opacity:0"
         d="m 52.920113,107.59506 h 2.373459 v 2.51977 h -2.373459"
         id="path209" /><path
         style="fill:#000000;fill-opacity:0"
         d="m 89.115364,105.70524 1.780094,-0.62994 v 2.51976 h -2.373459"
         id="path208" /><path
         style="fill:#000000;fill-opacity:1"
         d="m 86.741905,105.70524 1.186729,-1.25988 1.18673,1.25988 -0.593365,1.88982 -1.780094,0.62995 -1.18673,-1.25989"
         id="path207" /><path
         style="fill:#b1bec6;fill-opacity:1"
         d="m 83.775081,105.0753 1.780094,-0.62994 1.18673,1.25988 -1.18673,1.25988 -1.780094,0.62994"
         id="path206" /><path
         style="fill:#b1bec6;fill-opacity:1"
         d="m 81.994987,105.70524 1.780094,-0.62994 v 2.51976 l -1.780094,0.62995 -1.18673,-1.25989"
         id="path205" /><path
         style="fill:#ffffff;fill-opacity:1"
         d="m 79.028163,105.0753 1.780094,-0.62994 1.18673,1.25988 -1.18673,1.25988 -1.780094,0.62994"
         id="path204" /><path
         style="fill:#ffffff;fill-opacity:1"
         d="m 76.654704,105.0753 h 2.373459 v 2.51976 h -2.373459"
         id="path203" /><path
         style="fill:#ffffff;fill-opacity:1"
         d="m 74.874609,105.70524 1.780095,-0.62994 v 2.51976 h -2.373459"
         id="path202" /><path
         style="fill:#ffffff;fill-opacity:1"
         d="m 71.907785,105.0753 1.780095,-0.62994 1.186729,1.25988 -0.593364,1.88982 -1.780095,-0.62994"
         id="path201" /><path
         style="fill:#b1bec6;fill-opacity:1"
         d="m 69.534326,105.0753 h 2.373459 l 0.593365,1.88982 -1.186729,1.25989 -1.18673,-1.25989"
         id="path200" /><path
         style="fill:#b1bec6;fill-opacity:1"
         d="m 67.160867,105.0753 h 2.373459 l 0.593365,1.88982 -1.186729,1.25989 h -1.18673 l -1.18673,-1.25989"
         id="path199" /><path
         style="fill:#b1bec6;fill-opacity:1"
         d="m 64.194043,105.70524 1.18673,-1.25988 1.780094,0.62994 -0.593365,1.88982 h -1.186729"
         id="path198" /><path
         style="fill:#b1bec6;fill-opacity:1"
         d="m 62.413949,105.0753 1.780094,0.62994 1.18673,1.25988 -1.18673,1.25989 -1.780094,-0.62995"
         id="path197" /><path
         style="fill:#b1bec6;fill-opacity:1"
         d="m 59.447125,105.70524 1.18673,-1.25988 1.780094,0.62994 v 2.51976 l -1.780094,-0.62994"
         id="path196" /><path
         style="fill:#000000;fill-opacity:1"
         d="m 57.073666,105.70524 1.18673,-1.25988 1.186729,1.25988 1.18673,1.25988 -1.18673,1.25989 -1.780094,-0.62995"
         id="path195" /><path
         style="fill:#000000;fill-opacity:0"
         d="m 55.293572,105.0753 1.780094,0.62994 0.593365,1.88982 h -2.373459"
         id="path194" /><path
         style="fill:#000000;fill-opacity:0"
         d="m 52.920113,105.0753 h 2.373459 v 2.51976 h -2.373459"
         id="path193" /><path
         style="fill:#000000;fill-opacity:1"
         d="m 88.521999,102.55554 h 2.373459 v 2.51976 l -1.780094,0.62994 -1.18673,-1.25988"
         id="path192" /><path
         style="fill:#b1bec6;fill-opacity:1"
         d="m 86.741905,103.18548 1.780094,-0.62994 -0.593365,1.88982 -1.186729,1.25988 -1.18673,-1.25988"
         id="path191" /><path
         style="fill:#ffffff;fill-opacity:1"
         d="m 83.775081,102.55554 1.780094,-0.62995 1.18673,1.25989 -1.18673,1.25988 -1.780094,0.62994"
         id="path190" /><path
         style="fill:#ffffff;fill-opacity:1"
         d="m 81.401622,102.55554 h 2.373459 v 2.51976 l -1.780094,0.62994 -1.18673,-1.25988"
         id="path189" /><path
         style="fill:#ffffff;fill-opacity:1"
         d="m 79.028163,102.55554 h 2.373459 l -0.593365,1.88982 -1.780094,0.62994"
         id="path188" /><path
         style="fill:#ffffff;fill-opacity:1"
         d="m 76.654704,102.55554 h 2.373459 v 2.51976 h -2.373459"
         id="path187" /><path
         style="fill:#ffffff;fill-opacity:1"
         d="m 73.68788,103.18548 1.186729,-1.25989 1.780095,0.62995 v 2.51976 l -1.780095,0.62994 -1.186729,-1.25988"
         id="path186" /><path
         style="fill:#000000;fill-opacity:1"
         d="m 71.907785,102.55554 1.780095,0.62994 v 1.25988 l -1.780095,0.62994"
         id="path185" /><path
         style="fill:#000000;fill-opacity:1"
         d="m 69.534326,102.55554 h 2.373459 v 2.51976 h -2.373459"
         id="path184" /><path
         style="fill:#000000;fill-opacity:1"
         d="m 67.160867,102.55554 h 2.373459 v 2.51976 h -2.373459"
         id="path183" /><path
         style="fill:#000000;fill-opacity:1"
         d="m 64.194043,103.18548 1.18673,-1.25989 1.780094,0.62995 v 2.51976 l -1.780094,-0.62994"
         id="path182" /><path
         style="fill:#b1bec6;fill-opacity:1"
         d="m 61.820584,103.18548 1.18673,-1.25989 1.186729,1.25989 1.18673,1.25988 -1.18673,1.25988 -1.780094,-0.62994"
         id="path181" /><path
         style="fill:#b1bec6;fill-opacity:1"
         d="m 60.04049,102.55554 1.780094,0.62994 0.593365,1.88982 -1.780094,-0.62994"
         id="path180" /><path
         style="fill:#b1bec6;fill-opacity:1"
         d="m 57.073666,103.18548 1.18673,-1.25989 1.780094,0.62995 0.593365,1.88982 -1.18673,1.25988 -1.186729,-1.25988"
         id="path179" /><path
         style="fill:#000000;fill-opacity:1"
         d="m 54.700207,103.18548 1.186729,-1.25989 1.18673,1.25989 1.18673,1.25988 -1.18673,1.25988 -1.780094,-0.62994"
         id="path178" /><path
         style="fill:#000000;fill-opacity:0"
         d="m 52.920113,102.55554 1.780094,0.62994 0.593365,1.88982 h -2.373459"
         id="path177" /><path
         style="fill:#000000;fill-opacity:1"
         d="m 88.521999,100.03577 h 2.373459 v 2.51977 h -2.373459"
         id="path176" /><path
         style="fill:#ffffff;fill-opacity:1"
         d="m 86.14854,100.03577 h 2.373459 v 2.51977 l -1.780094,0.62994 -1.18673,-1.25989"
         id="path175" /><path
         style="fill:#ffffff;fill-opacity:1"
         d="m 83.775081,100.03577 h 2.373459 l -0.593365,1.88982 -1.780094,0.62995"
         id="path174" /><path
         style="fill:#ffffff;fill-opacity:1"
         d="m 81.401622,100.03577 h 2.373459 v 2.51977 h -2.373459"
         id="path173" /><path
         style="fill:#ffffff;fill-opacity:1"
         d="m 79.028163,100.03577 h 2.373459 v 2.51977 h -2.373459"
         id="path172" /><path
         style="fill:#ffffff;fill-opacity:1"
         d="m 76.654704,100.03577 h 2.373459 v 2.51977 h -2.373459"
         id="path171" /><path
         style="fill:#ffffff;fill-opacity:1"
         d="m 74.281245,100.03577 h 2.373459 v 2.51977 l -1.780095,-0.62995"
         id="path170" /><path
         style="fill:#ffffff;fill-opacity:1"
         d="m 72.50115,100.66571 1.780095,-0.62994 0.593364,1.88982 -1.186729,1.25989 -1.780095,-0.62994"
         id="path169" /><path
         style="fill:#ffffff;fill-opacity:1"
         d="m 69.534326,100.03577 1.780095,-0.62994 1.186729,1.25988 -0.593365,1.88983 h -2.373459"
         id="path168" /><path
         style="fill:#ffffff;fill-opacity:1"
         d="m 67.160867,100.03577 h 2.373459 v 2.51977 h -2.373459"
         id="path167" /><path
         style="fill:#ffffff;fill-opacity:1"
         d="m 65.380773,100.66571 1.780094,-0.62994 v 2.51977 l -1.780094,-0.62995"
         id="path166" /><path
         style="fill:#000000;fill-opacity:1"
         d="m 62.413949,100.03577 1.780094,-0.62994 1.18673,1.25988 v 1.25988 l -1.18673,1.25989 -1.186729,-1.25989"
         id="path165" /><path
         style="fill:#b1bec6;fill-opacity:1"
         d="m 60.04049,100.03577 h 2.373459 l 0.593365,1.88982 -1.18673,1.25989 -1.780094,-0.62994"
         id="path164" /><path
         style="fill:#b1bec6;fill-opacity:1"
         d="m 57.667031,100.03577 h 2.373459 v 2.51977 l -1.780094,-0.62995"
         id="path163" /><path
         style="fill:#b1bec6;fill-opacity:1"
         d="m 55.293572,100.03577 h 2.373459 l 0.593365,1.88982 -1.18673,1.25989 -1.18673,-1.25989"
         id="path162" /><path
         style="fill:#000000;fill-opacity:1"
         d="m 52.920113,100.03577 h 2.373459 l 0.593364,1.88982 -1.186729,1.25989 -1.780094,-0.62994"
         id="path161" /><path
         style="fill:#000000;fill-opacity:1"
         d="m 88.521999,97.516007 h 2.373459 v 2.519763 h -2.373459"
         id="path160" /><path
         style="fill:#ffffff;fill-opacity:1"
         d="m 85.555175,98.145948 1.18673,-1.259882 1.780094,0.629941 v 2.519763 H 86.14854"
         id="path159" /><path
         style="fill:#ffffff;fill-opacity:1"
         d="m 83.775081,97.516007 1.780094,0.629941 0.593365,1.889822 h -2.373459"
         id="path158" /><path
         style="fill:#ffffff;fill-opacity:1"
         d="m 81.401622,97.516007 h 2.373459 v 2.519763 h -2.373459"
         id="path157" /><path
         style="fill:#ffffff;fill-opacity:1"
         d="m 79.028163,97.516007 h 2.373459 v 2.519763 h -2.373459"
         id="path156" /><path
         style="fill:#ffffff;fill-opacity:1"
         d="m 76.654704,97.516007 h 2.373459 v 2.519763 h -2.373459"
         id="path155" /><path
         style="fill:#ffffff;fill-opacity:1"
         d="m 74.281245,97.516007 h 2.373459 v 2.519763 h -2.373459"
         id="path154" /><path
         style="fill:#ffffff;fill-opacity:1"
         d="m 71.907785,97.516007 h 2.37346 v 2.519763 l -1.780095,0.62994 -1.186729,-1.25988"
         id="path153" /><path
         style="fill:#b1bec6;fill-opacity:1"
         d="m 70.127691,98.145948 1.780094,-0.629941 -0.593364,1.889823 -1.780095,0.62994"
         id="path152" /><path
         style="fill:#b1bec6;fill-opacity:1"
         d="m 67.160867,97.516007 1.780095,-0.629941 1.186729,1.259882 -0.593365,1.889822 h -2.373459"
         id="path151" /><path
         style="fill:#000000;fill-opacity:1"
         d="m 64.787408,97.516007 h 2.373459 v 2.519763 l -1.780094,0.62994 -1.18673,-1.25988"
         id="path150" /><path
         style="fill:#000000;fill-opacity:1"
         d="m 62.413949,97.516007 h 2.373459 l -0.593365,1.889823 -1.780094,0.62994"
         id="path149" /><path
         style="fill:#b1bec6;fill-opacity:1"
         d="m 60.04049,97.516007 h 2.373459 v 2.519763 H 60.04049"
         id="path148" /><path
         style="fill:#b1bec6;fill-opacity:1"
         d="m 58.260396,98.145948 1.780094,-0.629941 v 2.519763 h -2.373459"
         id="path147" /><path
         style="fill:#b1bec6;fill-opacity:1"
         d="m 55.886936,98.145948 1.18673,-1.259882 1.18673,1.259882 -0.593365,1.889822 h -2.373459"
         id="path146" /><path
         style="fill:#000000;fill-opacity:1"
         d="m 52.920113,97.516007 1.780094,-0.629941 1.186729,1.259882 -0.593364,1.889822 h -2.373459"
         id="path145" /><path
         style="fill:#000000;fill-opacity:1"
         d="m 87.928634,95.626184 1.18673,-1.259883 1.780094,0.629942 v 2.519764 h -2.373459"
         id="path144" /><path
         style="fill:#b1bec6;fill-opacity:1"
         d="m 86.14854,94.996243 1.780094,0.629941 0.593365,1.889823 -1.780094,-0.629941"
         id="path143" /><path
         style="fill:#ffffff;fill-opacity:1"
         d="m 83.775081,94.996243 h 2.373459 l 0.593365,1.889823 -1.18673,1.259882 -1.780094,-0.629941"
         id="path142" /><path
         style="fill:#ffffff;fill-opacity:1"
         d="m 81.401622,94.996243 h 2.373459 v 2.519764 h -2.373459"
         id="path141" /><path
         style="fill:#ffffff;fill-opacity:1"
         d="m 79.028163,94.996243 h 2.373459 v 2.519764 h -2.373459"
         id="path140" /><path
         style="fill:#ffffff;fill-opacity:1"
         d="m 76.654704,94.996243 h 2.373459 v 2.519764 h -2.373459"
         id="path139" /><path
         style="fill:#ffffff;fill-opacity:1"
         d="m 74.281245,94.996243 h 2.373459 v 2.519764 h -2.373459"
         id="path138" /><path
         style="fill:#ffffff;fill-opacity:1"
         d="m 71.907785,94.996243 h 2.37346 v 2.519764 h -2.37346"
         id="path137" /><path
         style="fill:#b1bec6;fill-opacity:1"
         d="m 68.940962,95.626184 1.186729,-1.259883 1.780094,0.629942 v 2.519764 l -1.780094,0.629941 -1.186729,-1.259882"
         id="path136" /><path
         style="fill:#ffffff;fill-opacity:1"
         d="m 66.567502,95.626184 1.18673,-1.259883 1.18673,1.259883 v 1.259882 l -1.780095,0.629941"
         id="path135" /><path
         style="fill:#ffffff;fill-opacity:1"
         d="m 64.787408,94.996243 1.780094,0.629941 0.593365,1.889823 h -2.373459"
         id="path134" /><path
         style="fill:#ffffff;fill-opacity:1"
         d="m 61.820584,95.626184 1.18673,-1.259883 1.780094,0.629942 v 2.519764 h -2.373459"
         id="path133" /><path
         style="fill:#b1bec6;fill-opacity:1"
         d="m 60.04049,94.996243 1.780094,0.629941 0.593365,1.889823 H 60.04049"
         id="path132" /><path
         style="fill:#b1bec6;fill-opacity:1"
         d="m 57.073666,95.626184 1.18673,-1.259883 1.780094,0.629942 v 2.519764 l -1.780094,0.629941 -1.18673,-1.259882"
         id="path131" /><path
         style="fill:#000000;fill-opacity:1"
         d="m 54.700207,95.626184 1.186729,-1.259883 1.18673,1.259883 v 1.259882 l -1.18673,1.259882 -1.186729,-1.259882"
         id="path130" /><path
         style="fill:#000000;fill-opacity:0"
         d="m 52.920113,94.996243 1.780094,0.629941 v 1.259882 l -1.780094,0.629941"
         id="path129" /><path
         style="fill:#000000;fill-opacity:0"
         d="m 88.521999,92.476478 h 2.373459 v 2.519765 l -1.780094,-0.629942"
         id="path128" /><path
         style="fill:#000000;fill-opacity:1"
         d="m 86.14854,92.476478 h 2.373459 l 0.593365,1.889823 -1.18673,1.259883 -1.780094,-0.629941"
         id="path127" /><path
         style="fill:#ffffff;fill-opacity:1"
         d="m 83.775081,92.476478 h 2.373459 v 2.519765 h -2.373459"
         id="path126" /><path
         style="fill:#ffffff;fill-opacity:1"
         d="m 81.994987,93.106419 1.780094,-0.629941 v 2.519765 h -2.373459"
         id="path125" /><path
         style="fill:#ffffff;fill-opacity:1"
         d="m 78.434798,93.106419 1.186729,-1.259882 h 1.18673 l 1.18673,1.259882 -0.593365,1.889824 h -2.373459"
         id="path124" /><path
         style="fill:#ffffff;fill-opacity:1"
         d="m 76.654704,92.476478 1.780094,0.629941 0.593365,1.889824 h -2.373459"
         id="path123" /><path
         style="fill:#ffffff;fill-opacity:1"
         d="m 74.874609,93.106419 1.780095,-0.629941 v 2.519765 h -2.373459"
         id="path122" /><path
         style="fill:#ffffff;fill-opacity:1"
         d="m 72.50115,93.106419 1.18673,-1.259882 1.186729,1.259882 -0.593364,1.889824 h -2.37346"
         id="path121" /><path
         style="fill:#b1bec6;fill-opacity:1"
         d="m 69.534326,92.476478 1.780095,-0.629941 1.186729,1.259882 -0.593365,1.889824 -1.780094,-0.629942"
         id="path120" /><path
         style="fill:#b1bec6;fill-opacity:1"
         d="m 67.160867,92.476478 h 2.373459 l 0.593365,1.889823 -1.186729,1.259883 -1.18673,-1.259883"
         id="path119" /><path
         style="fill:#ffffff;fill-opacity:1"
         d="m 64.787408,92.476478 h 2.373459 l 0.593365,1.889823 -1.18673,1.259883 -1.780094,-0.629941"
         id="path118" /><path
         style="fill:#ffffff;fill-opacity:1"
         d="m 61.820584,93.106419 1.18673,-1.259882 1.780094,0.629941 v 2.519765 l -1.780094,-0.629942"
         id="path117" /><path
         style="fill:#ffffff;fill-opacity:1"
         d="m 60.04049,92.476478 1.780094,0.629941 1.18673,1.259882 -1.18673,1.259883 -1.780094,-0.629941"
         id="path116" /><path
         style="fill:#ffffff;fill-opacity:1"
         d="m 57.667031,92.476478 h 2.373459 v 2.519765 l -1.780094,-0.629942"
         id="path115" /><path
         style="fill:#b1bec6;fill-opacity:1"
         d="m 55.293572,92.476478 h 2.373459 l 0.593365,1.889823 -1.18673,1.259883 -1.18673,-1.259883"
         id="path114" /><path
         style="fill:#000000;fill-opacity:1"
         d="m 52.920113,92.476478 h 2.373459 l 0.593364,1.889823 -1.186729,1.259883 -1.780094,-0.629941"
         id="path113" /><path
         style="fill:#000000;fill-opacity:0"
         d="m 89.115364,90.586655 1.780094,-0.629941 v 2.519764 h -2.373459"
         id="path112" /><path
         style="fill:#000000;fill-opacity:1"
         d="m 86.14854,89.956714 1.780094,-0.629941 1.18673,1.259882 -0.593365,1.889823 H 86.14854"
         id="path111" /><path
         style="fill:#ffffff;fill-opacity:1"
         d="m 83.181716,90.586655 1.18673,-1.259882 1.780094,0.629941 v 2.519764 h -2.373459"
         id="path110" /><path
         style="fill:#ffffff;fill-opacity:1"
         d="m 81.401622,89.956714 1.780094,0.629941 0.593365,1.889823 -1.780094,0.629941 -1.18673,-1.259882"
         id="path109" /><path
         style="fill:#000000;fill-opacity:1"
         d="m 79.028163,89.956714 h 2.373459 l -0.593365,1.889823 h -1.18673"
         id="path108" /><path
         style="fill:#ffffff;fill-opacity:1"
         d="m 76.654704,89.956714 h 2.373459 l 0.593364,1.889823 -1.186729,1.259882 -1.780094,-0.629941"
         id="path107" /><path
         style="fill:#ffffff;fill-opacity:1"
         d="m 74.281245,89.956714 h 2.373459 v 2.519764 l -1.780095,0.629941 -1.186729,-1.259882"
         id="path106" /><path
         style="fill:#b1bec6;fill-opacity:1"
         d="m 72.50115,90.586655 1.780095,-0.629941 -0.593365,1.889823 -1.18673,1.259882 -1.186729,-1.259882"
         id="path105" /><path
         style="fill:#000000;fill-opacity:1"
         d="m 69.534326,89.956714 1.780095,-0.629941 1.186729,1.259882 -1.186729,1.259882 -1.780095,0.629941"
         id="path104" /><path
         style="fill:#000000;fill-opacity:1"
         d="m 67.160867,89.956714 h 2.373459 v 2.519764 h -2.373459"
         id="path103" /><path
         style="fill:#000000;fill-opacity:1"
         d="m 64.194043,90.586655 1.18673,-1.259882 1.780094,0.629941 v 2.519764 h -2.373459"
         id="path102" /><path
         style="fill:#b1bec6;fill-opacity:1"
         d="m 62.413949,89.956714 1.780094,0.629941 0.593365,1.889823 -1.780094,-0.629941"
         id="path101" /><path
         style="fill:#ffffff;fill-opacity:1"
         d="m 60.04049,89.956714 h 2.373459 l 0.593365,1.889823 -1.18673,1.259882 -1.780094,-0.629941"
         id="path100" /><path
         style="fill:#ffffff;fill-opacity:1"
         d="m 58.260396,90.586655 1.780094,-0.629941 v 2.519764 h -2.373459"
         id="path99" /><path
         style="fill:#b1bec6;fill-opacity:1"
         d="m 55.293572,89.956714 1.780094,-0.629941 1.18673,1.259882 -0.593365,1.889823 h -2.373459"
         id="path98" /><path
         style="fill:#000000;fill-opacity:1"
         d="m 52.920113,89.956714 h 2.373459 v 2.519764 h -2.373459"
         id="path97" /><path
         style="fill:#000000;fill-opacity:1"
         d="m 87.928634,88.06689 1.18673,-1.259882 1.780094,0.629941 v 2.519765 l -1.780094,0.629941 -1.18673,-1.259882"
         id="path96" /><path
         style="fill:#fdc300;fill-opacity:1"
         d="m 86.14854,87.436949 1.780094,0.629941 v 1.259883 l -1.780094,0.629941"
         id="path95" /><path
         style="fill:#fdc300;fill-opacity:1"
         d="m 84.368446,88.06689 1.780094,-0.629941 v 2.519765 l -1.780094,-0.629941"
         id="path94" /><path
         style="fill:#ffffff;fill-opacity:1"
         d="m 81.401622,87.436949 1.780094,-0.629941 1.18673,1.259882 v 1.259883 l -1.18673,1.259882 -1.780094,-0.629941"
         id="path93" /><path
         style="fill:#000000;fill-opacity:1"
         d="m 79.028163,87.436949 h 2.373459 v 2.519765 h -2.373459"
         id="path92" /><path
         style="fill:#ffffff;fill-opacity:1"
         d="m 76.654704,87.436949 h 2.373459 v 2.519765 h -2.373459"
         id="path91" /><path
         style="fill:#ffffff;fill-opacity:1"
         d="m 74.281245,87.436949 h 2.373459 v 2.519765 h -2.373459"
         id="path90" /><path
         style="fill:#000000;fill-opacity:1"
         d="m 71.907785,87.436949 h 2.37346 v 2.519765 l -1.780095,0.629941 -1.186729,-1.259882"
         id="path89" /><path
         style="fill:#000000;fill-opacity:0"
         d="m 69.534326,87.436949 h 2.373459 l -0.593364,1.889824 -1.780095,0.629941"
         id="path88" /><path
         style="fill:#000000;fill-opacity:0"
         d="m 67.160867,87.436949 h 2.373459 v 2.519765 h -2.373459"
         id="path87" /><path
         style="fill:#000000;fill-opacity:0"
         d="m 64.787408,87.436949 h 2.373459 v 2.519765 l -1.780094,-0.629941"
         id="path86" /><path
         style="fill:#000000;fill-opacity:1"
         d="m 62.413949,87.436949 h 2.373459 l 0.593365,1.889824 -1.18673,1.259882 -1.780094,-0.629941"
         id="path85" /><path
         style="fill:#000000;fill-opacity:1"
         d="m 59.447125,88.06689 1.18673,-1.259882 1.780094,0.629941 v 2.519765 H 60.04049"
         id="path84" /><path
         style="fill:#b1bec6;fill-opacity:1"
         d="m 57.667031,87.436949 1.780094,0.629941 0.593365,1.889824 -1.780094,0.629941 -1.18673,-1.259882"
         id="path83" /><path
         style="fill:#b1bec6;fill-opacity:1"
         d="m 55.886936,88.06689 1.780095,-0.629941 -0.593365,1.889824 -1.780094,0.629941"
         id="path82" /><path
         style="fill:#000000;fill-opacity:1"
         d="m 52.920113,87.436949 1.780094,-0.629941 1.186729,1.259882 -0.593364,1.889824 h -2.373459"
         id="path81" /><path
         style="fill:#000000;fill-opacity:0"
         d="m 88.521999,84.917185 h 2.373459 v 2.519764 l -1.780094,-0.629941"
         id="path80" /><path
         style="fill:#000000;fill-opacity:1"
         d="m 86.14854,84.917185 h 2.373459 l 0.593365,1.889823 -1.18673,1.259882 -1.780094,-0.629941"
         id="path79" /><path
         style="fill:#ffffff;fill-opacity:1"
         d="m 83.181716,85.547126 1.18673,-1.259882 1.780094,0.629941 v 2.519764 l -1.780094,0.629941 -1.18673,-1.259882"
         id="path78" /><path
         style="fill:#ffffff;fill-opacity:1"
         d="m 80.808257,85.547126 1.18673,-1.259882 1.186729,1.259882 v 1.259882 l -1.780094,0.629941"
         id="path77" /><path
         style="fill:#000000;fill-opacity:1"
         d="m 79.621527,85.547126 h 1.18673 l 0.593365,1.889823 h -2.373459"
         id="path76" /><path
         style="fill:#ffffff;fill-opacity:1"
         d="m 77.248068,85.547126 1.18673,-1.259882 1.186729,1.259882 -0.593364,1.889823 h -2.373459"
         id="path75" /><path
         style="fill:#ffffff;fill-opacity:1"
         d="m 74.281245,84.917185 1.780094,-0.629941 1.186729,1.259882 -0.593364,1.889823 h -2.373459"
         id="path74" /><path
         style="fill:#000000;fill-opacity:1"
         d="m 71.907785,84.917185 h 2.37346 v 2.519764 h -2.37346"
         id="path73" /><path
         style="fill:#000000;fill-opacity:0"
         d="m 69.534326,84.917185 h 2.373459 v 2.519764 h -2.373459"
         id="path72" /><path
         style="fill:#000000;fill-opacity:0"
         d="m 67.160867,84.917185 h 2.373459 v 2.519764 h -2.373459"
         id="path71" /><path
         style="fill:#000000;fill-opacity:0"
         d="m 64.787408,84.917185 h 2.373459 v 2.519764 h -2.373459"
         id="path70" /><path
         style="fill:#000000;fill-opacity:0"
         d="m 62.413949,84.917185 h 2.373459 v 2.519764 h -2.373459"
         id="path69" /><path
         style="fill:#000000;fill-opacity:0"
         d="m 60.04049,84.917185 h 2.373459 v 2.519764 l -1.780094,-0.629941"
         id="path68" /><path
         style="fill:#000000;fill-opacity:1"
         d="m 57.667031,84.917185 h 2.373459 l 0.593365,1.889823 -1.18673,1.259882 -1.780094,-0.629941"
         id="path67" /><path
         style="fill:#000000;fill-opacity:1"
         d="m 55.293572,84.917185 h 2.373459 v 2.519764 l -1.780095,0.629941 -1.186729,-1.259882"
         id="path66" /><path
         style="fill:#000000;fill-opacity:0"
         d="m 52.920113,84.917185 h 2.373459 l -0.593365,1.889823 -1.780094,0.629941"
         id="path65" /><path
         style="fill:#000000;fill-opacity:0"
         d="m 88.521999,82.39742 h 2.373459 v 2.519765 h -2.373459"
         id="path64" /><path
         style="fill:#000000;fill-opacity:1"
         d="m 85.555175,83.027362 1.18673,-1.259883 1.780094,0.629941 v 2.519765 H 86.14854"
         id="path63" /><path
         style="fill:#b1bec6;fill-opacity:1"
         d="m 83.775081,82.39742 1.780094,0.629942 0.593365,1.889823 -1.780094,-0.629941"
         id="path62" /><path
         style="fill:#ffffff;fill-opacity:1"
         d="m 81.401622,82.39742 h 2.373459 l 0.593365,1.889824 -1.18673,1.259882 -1.186729,-1.259882"
         id="path61" /><path
         style="fill:#ffffff;fill-opacity:1"
         d="m 79.028163,82.39742 h 2.373459 l 0.593365,1.889824 -1.18673,1.259882 h -1.18673 l -1.186729,-1.259882"
         id="path60" /><path
         style="fill:#ffffff;fill-opacity:1"
         d="m 76.654704,82.39742 h 2.373459 l -0.593365,1.889824 -1.18673,1.259882 -1.186729,-1.259882"
         id="path59" /><path
         style="fill:#b1bec6;fill-opacity:1"
         d="m 74.874609,83.027362 1.780095,-0.629942 -0.593365,1.889824 -1.780094,0.629941"
         id="path58" /><path
         style="fill:#000000;fill-opacity:1"
         d="m 71.907785,82.39742 1.780095,-0.629941 1.186729,1.259883 -0.593364,1.889823 h -2.37346"
         id="path57" /><path
         style="fill:#000000;fill-opacity:0"
         d="m 69.534326,82.39742 h 2.373459 v 2.519765 h -2.373459"
         id="path56" /><path
         style="fill:#000000;fill-opacity:0"
         d="m 67.160867,82.39742 h 2.373459 v 2.519765 h -2.373459"
         id="path55" /><path
         style="fill:#000000;fill-opacity:0"
         d="m 64.787408,82.39742 h 2.373459 v 2.519765 h -2.373459"
         id="path54" /><path
         style="fill:#000000;fill-opacity:0"
         d="m 62.413949,82.39742 h 2.373459 v 2.519765 h -2.373459"
         id="path53" /><path
         style="fill:#000000;fill-opacity:0"
         d="m 60.04049,82.39742 h 2.373459 v 2.519765 H 60.04049"
         id="path52" /><path
         style="fill:#000000;fill-opacity:0"
         d="m 57.667031,82.39742 h 2.373459 v 2.519765 h -2.373459"
         id="path51" /><path
         style="fill:#000000;fill-opacity:0"
         d="m 55.293572,82.39742 h 2.373459 v 2.519765 h -2.373459"
         id="path50" /><path
         style="fill:#000000;fill-opacity:0"
         d="m 52.920113,82.39742 h 2.373459 v 2.519765 h -2.373459"
         id="path49" /><path
         style="fill:#000000;fill-opacity:0"
         d="m 88.521999,79.877656 h 2.373459 v 2.519764 h -2.373459"
         id="path48" /><path
         style="fill:#000000;fill-opacity:0"
         d="m 86.14854,79.877656 h 2.373459 v 2.519764 l -1.780094,-0.629941"
         id="path47" /><path
         style="fill:#000000;fill-opacity:1"
         d="m 83.181716,80.507597 1.18673,-1.259882 1.780094,0.629941 0.593365,1.889823 -1.18673,1.259883 -1.780094,-0.629942"
         id="path46" /><path
         style="fill:#cf3332;fill-opacity:1"
         d="m 80.808257,80.507597 1.18673,-1.259882 1.186729,1.259882 0.593365,1.889823 h -2.373459"
         id="path45" /><path
         style="fill:#cf3332;fill-opacity:1"
         d="m 78.434798,80.507597 1.186729,-1.259882 1.18673,1.259882 0.593365,1.889823 h -2.373459"
         id="path44" /><path
         style="fill:#000000;fill-opacity:1"
         d="m 76.654704,79.877656 1.780094,0.629941 0.593365,1.889823 h -2.373459"
         id="path43" /><path
         style="fill:#000000;fill-opacity:1"
         d="m 73.68788,80.507597 1.186729,-1.259882 1.780095,0.629941 v 2.519764 l -1.780095,0.629942 -1.186729,-1.259883"
         id="path42" /><path
         style="fill:#000000;fill-opacity:0"
         d="m 71.907785,79.877656 1.780095,0.629941 v 1.259882 l -1.780095,0.629941"
         id="path41" /><path
         style="fill:#000000;fill-opacity:0"
         d="m 69.534326,79.877656 h 2.373459 v 2.519764 h -2.373459"
         id="path40" /><path
         style="fill:#000000;fill-opacity:0"
         d="m 67.160867,79.877656 h 2.373459 v 2.519764 h -2.373459"
         id="path39" /><path
         style="fill:#000000;fill-opacity:0"
         d="m 64.787408,79.877656 h 2.373459 v 2.519764 h -2.373459"
         id="path38" /><path
         style="fill:#000000;fill-opacity:0"
         d="m 62.413949,79.877656 h 2.373459 v 2.519764 h -2.373459"
         id="path37" /><path
         style="fill:#000000;fill-opacity:0"
         d="m 60.04049,79.877656 h 2.373459 V 82.39742 H 60.04049"
         id="path36" /><path
         style="fill:#000000;fill-opacity:0"
         d="M 57.667031,79.877656 H 60.04049 V 82.39742 H 57.667031"
         id="path35" /><path
         style="fill:#000000;fill-opacity:0"
         d="m 55.293572,79.877656 h 2.373459 v 2.519764 h -2.373459"
         id="path34" /><path
         style="fill:#000000;fill-opacity:0"
         d="m 52.920113,79.877656 h 2.373459 v 2.519764 h -2.373459"
         id="path33" /><path
         style="fill:#000000;fill-opacity:0"
         d="m 88.521999,77.357892 h 2.373459 v 2.519764 h -2.373459"
         id="path32" /><path
         style="fill:#000000;fill-opacity:0"
         d="m 86.14854,77.357892 h 2.373459 v 2.519764 H 86.14854"
         id="path31" /><path
         style="fill:#000000;fill-opacity:0"
         d="m 83.775081,77.357892 h 2.373459 v 2.519764 l -1.780094,-0.629941"
         id="path30" /><path
         style="fill:#000000;fill-opacity:1"
         d="m 80.808257,77.987833 1.18673,-1.259883 1.780094,0.629942 0.593365,1.889823 -1.18673,1.259882 -1.186729,-1.259882"
         id="path29" /><path
         style="fill:#cf3332;fill-opacity:1"
         d="m 79.028163,77.357892 1.780094,0.629941 1.18673,1.259882 -1.18673,1.259882 -1.18673,-1.259882"
         id="path28" /><path
         style="fill:#cf3332;fill-opacity:1"
         d="m 76.654704,77.357892 h 2.373459 l 0.593364,1.889823 -1.186729,1.259882 -1.780094,-0.629941"
         id="path27" /><path
         style="fill:#cf3332;fill-opacity:1"
         d="m 74.874609,77.987833 1.780095,-0.629941 v 2.519764 l -1.780095,-0.629941"
         id="path26" /><path
         style="fill:#000000;fill-opacity:1"
         d="m 71.907785,77.357892 1.780095,-0.629942 1.186729,1.259883 v 1.259882 l -1.186729,1.259882 -1.780095,-0.629941"
         id="path25" /><path
         style="fill:#000000;fill-opacity:0"
         d="m 69.534326,77.357892 h 2.373459 v 2.519764 h -2.373459"
         id="path24" /><path
         style="fill:#000000;fill-opacity:0"
         d="m 67.160867,77.357892 h 2.373459 v 2.519764 h -2.373459"
         id="path23" /><path
         style="fill:#000000;fill-opacity:0"
         d="m 64.787408,77.357892 h 2.373459 v 2.519764 h -2.373459"
         id="path22" /><path
         style="fill:#000000;fill-opacity:0"
         d="m 62.413949,77.357892 h 2.373459 v 2.519764 h -2.373459"
         id="path21" /><path
         style="fill:#000000;fill-opacity:0"
         d="m 60.04049,77.357892 h 2.373459 v 2.519764 H 60.04049"
         id="path20" /><path
         style="fill:#000000;fill-opacity:0"
         d="m 57.667031,77.357892 h 2.373459 v 2.519764 h -2.373459"
         id="path19" /><path
         style="fill:#000000;fill-opacity:0"
         d="m 55.293572,77.357892 h 2.373459 v 2.519764 h -2.373459"
         id="path18" /><path
         style="fill:#000000;fill-opacity:0"
         d="m 52.920113,77.357892 h 2.373459 v 2.519764 h -2.373459"
         id="path17" /><path
         style="fill:#000000;fill-opacity:0"
         d="m 88.521999,74.838127 h 2.373459 v 2.519765 h -2.373459"
         id="path16" /><path
         style="fill:#000000;fill-opacity:0"
         d="m 86.14854,74.838127 h 2.373459 v 2.519765 H 86.14854"
         id="path15" /><path
         style="fill:#000000;fill-opacity:0"
         d="m 83.775081,74.838127 h 2.373459 v 2.519765 h -2.373459"
         id="path14" /><path
         style="fill:#000000;fill-opacity:0"
         d="m 81.401622,74.838127 h 2.373459 v 2.519765 L 81.994987,76.72795"
         id="path13" /><path
         style="fill:#000000;fill-opacity:1"
         d="m 79.028163,74.838127 h 2.373459 l 0.593365,1.889823 -1.18673,1.259883 -1.780094,-0.629941"
         id="path12" /><path
         style="fill:#000000;fill-opacity:1"
         d="m 76.654704,74.838127 h 2.373459 v 2.519765 h -2.373459"
         id="path11" /><path
         style="fill:#000000;fill-opacity:1"
         d="m 74.281245,74.838127 h 2.373459 v 2.519765 L 74.874609,77.987833 73.68788,76.72795"
         id="path10" /><path
         style="fill:#000000;fill-opacity:1"
         d="m 71.907785,74.838127 h 2.37346 l -0.593365,1.889823 -1.780095,0.629942"
         id="path9" /><path
         style="fill:#000000;fill-opacity:0"
         d="m 69.534326,74.838127 h 2.373459 v 2.519765 h -2.373459"
         id="path8" /><path
         style="fill:#000000;fill-opacity:0"
         d="m 67.160867,74.838127 h 2.373459 v 2.519765 h -2.373459"
         id="path7" /><path
         style="fill:#000000;fill-opacity:0"
         d="m 64.787408,74.838127 h 2.373459 v 2.519765 h -2.373459"
         id="path6" /><path
         style="fill:#000000;fill-opacity:0"
         d="m 62.413949,74.838127 h 2.373459 v 2.519765 h -2.373459"
         id="path5" /><path
         style="fill:#000000;fill-opacity:0"
         d="m 60.04049,74.838127 h 2.373459 v 2.519765 H 60.04049"
         id="path4" /><path
         style="fill:#000000;fill-opacity:0"
         d="m 57.667031,74.838127 h 2.373459 v 2.519765 h -2.373459"
         id="path3" /><path
         style="fill:#000000;fill-opacity:0"
         d="m 55.293572,74.838127 h 2.373459 v 2.519765 h -2.373459"
         id="path2" /><path
         style="fill:#000000;fill-opacity:0"
         d="m 52.920113,74.838127 h 2.373459 v 2.519765 h -2.373459"
         id="path1" /></g></g></svg>
